<?xml version="1.0" encoding="iso-8859-1"?>
<!-- Generator: Adobe Illustrator 23.0.2, SVG Export Plug-In . SVG Version: 6.00 Build 0)  -->
<svg version="1.1" id="Layer_1" xmlns="http://www.w3.org/2000/svg" xmlns:xlink="http://www.w3.org/1999/xlink" x="0px" y="0px"
	 viewBox="0 0 485 532" style="enable-background:new 0 0 485 532;" xml:space="preserve">
<path style="fill:#8CACF2;" d="M345.163,244.214c0,77.455-77.253,140.214-172.571,140.214c-25.009,0-48.738-4.314-70.175-12.066
	c-8.022,5.865-21.1,13.887-36.604,20.628C49.634,400,30.153,406,10.806,406c-4.382,0-8.292-2.629-9.977-6.674
	c-1.685-4.045-0.742-8.629,2.292-11.729l0,0l0,0l0,0l0,0l0.202-0.202c0.202-0.202,0.472-0.472,0.876-0.944
	c0.742-0.809,1.888-2.09,3.303-3.842c2.764-3.371,6.471-8.359,10.246-14.561c6.741-11.19,13.145-25.886,14.426-42.401
	c-20.223-22.92-32.155-51.03-32.155-81.432C0.02,166.759,77.273,104,172.591,104S345.163,166.759,345.163,244.214z"/>
</svg>
